<?xml version="1.0" encoding="UTF-8" standalone="no"?>
<!DOCTYPE svg PUBLIC "-//W3C//DTD SVG 1.0//EN" "http://www.w3.org/TR/2001/PR-SVG-20010719/DTD/svg10.dtd">
<svg width="45cm" height="22cm" viewBox="278 -21 883 423" xmlns="http://www.w3.org/2000/svg" xmlns:xlink="http://www.w3.org/1999/xlink">
  <rect style="fill: none; fill-opacity:0; stroke-width: 2; stroke-dasharray: 20; stroke: #000000" x="280" y="40" width="360" height="360"/>
  <g>
    <rect style="fill: #ffffff" x="320" y="80" width="40" height="40"/>
    <rect style="fill: none; fill-opacity:0; stroke-width: 2; stroke: #000000" x="320" y="80" width="40" height="40"/>
    <text font-size="12.7998" style="fill: #000000;text-anchor:middle;font-family:sans-serif;font-style:normal;font-weight:normal" x="340" y="103.9">
      <tspan x="340" y="103.9"></tspan>
    </text>
  </g>
  <g>
    <rect style="fill: #ffffff" x="360" y="80" width="40" height="40"/>
    <rect style="fill: none; fill-opacity:0; stroke-width: 2; stroke: #000000" x="360" y="80" width="40" height="40"/>
    <text font-size="12.7998" style="fill: #000000;text-anchor:middle;font-family:sans-serif;font-style:normal;font-weight:normal" x="380" y="103.9">
      <tspan x="380" y="103.9"></tspan>
    </text>
  </g>
  <g>
    <rect style="fill: #ffffff" x="400" y="80" width="40" height="40"/>
    <rect style="fill: none; fill-opacity:0; stroke-width: 2; stroke: #000000" x="400" y="80" width="40" height="40"/>
    <text font-size="12.7998" style="fill: #000000;text-anchor:middle;font-family:sans-serif;font-style:normal;font-weight:normal" x="420" y="103.9">
      <tspan x="420" y="103.9"></tspan>
    </text>
  </g>
  <g>
    <rect style="fill: #ffffff" x="440" y="80" width="40" height="40"/>
    <rect style="fill: none; fill-opacity:0; stroke-width: 2; stroke: #000000" x="440" y="80" width="40" height="40"/>
    <text font-size="12.7998" style="fill: #000000;text-anchor:middle;font-family:sans-serif;font-style:normal;font-weight:normal" x="460" y="103.9">
      <tspan x="460" y="103.9"></tspan>
    </text>
  </g>
  <g>
    <rect style="fill: #ffffff" x="480" y="80" width="40" height="40"/>
    <rect style="fill: none; fill-opacity:0; stroke-width: 2; stroke: #000000" x="480" y="80" width="40" height="40"/>
    <text font-size="12.7998" style="fill: #000000;text-anchor:middle;font-family:sans-serif;font-style:normal;font-weight:normal" x="500" y="103.9">
      <tspan x="500" y="103.9"></tspan>
    </text>
  </g>
  <g>
    <rect style="fill: #ffffff" x="520" y="80" width="40" height="40"/>
    <rect style="fill: none; fill-opacity:0; stroke-width: 2; stroke: #000000" x="520" y="80" width="40" height="40"/>
    <text font-size="12.7998" style="fill: #000000;text-anchor:middle;font-family:sans-serif;font-style:normal;font-weight:normal" x="540" y="103.9">
      <tspan x="540" y="103.9"></tspan>
    </text>
  </g>
  <g>
    <rect style="fill: #ffffff" x="560" y="80" width="40" height="40"/>
    <rect style="fill: none; fill-opacity:0; stroke-width: 2; stroke: #000000" x="560" y="80" width="40" height="40"/>
    <text font-size="12.7998" style="fill: #000000;text-anchor:middle;font-family:sans-serif;font-style:normal;font-weight:normal" x="580" y="103.9">
      <tspan x="580" y="103.9"></tspan>
    </text>
  </g>
  <g>
    <rect style="fill: #ffffff" x="320" y="120" width="40" height="40"/>
    <rect style="fill: none; fill-opacity:0; stroke-width: 2; stroke: #000000" x="320" y="120" width="40" height="40"/>
    <text font-size="12.7998" style="fill: #000000;text-anchor:middle;font-family:sans-serif;font-style:normal;font-weight:normal" x="340" y="143.9">
      <tspan x="340" y="143.9"></tspan>
    </text>
  </g>
  <g>
    <rect style="fill: #ffffff" x="360" y="120" width="40" height="40"/>
    <rect style="fill: none; fill-opacity:0; stroke-width: 2; stroke: #000000" x="360" y="120" width="40" height="40"/>
    <text font-size="12.7998" style="fill: #000000;text-anchor:middle;font-family:sans-serif;font-style:normal;font-weight:normal" x="380" y="143.9">
      <tspan x="380" y="143.9"></tspan>
    </text>
  </g>
  <g>
    <rect style="fill: #ffffff" x="400" y="120" width="40" height="40"/>
    <rect style="fill: none; fill-opacity:0; stroke-width: 2; stroke: #000000" x="400" y="120" width="40" height="40"/>
    <text font-size="12.7998" style="fill: #000000;text-anchor:middle;font-family:sans-serif;font-style:normal;font-weight:normal" x="420" y="143.9">
      <tspan x="420" y="143.9"></tspan>
    </text>
  </g>
  <g>
    <rect style="fill: #ffffff" x="440" y="120" width="40" height="40"/>
    <rect style="fill: none; fill-opacity:0; stroke-width: 2; stroke: #000000" x="440" y="120" width="40" height="40"/>
    <text font-size="12.7998" style="fill: #000000;text-anchor:middle;font-family:sans-serif;font-style:normal;font-weight:normal" x="460" y="143.9">
      <tspan x="460" y="143.9"></tspan>
    </text>
  </g>
  <g>
    <rect style="fill: #ffffff" x="480" y="120" width="40" height="40"/>
    <rect style="fill: none; fill-opacity:0; stroke-width: 2; stroke: #000000" x="480" y="120" width="40" height="40"/>
    <text font-size="12.7998" style="fill: #000000;text-anchor:middle;font-family:sans-serif;font-style:normal;font-weight:normal" x="500" y="143.9">
      <tspan x="500" y="143.9"></tspan>
    </text>
  </g>
  <g>
    <rect style="fill: #ffff00" x="520" y="120" width="40" height="40"/>
    <rect style="fill: none; fill-opacity:0; stroke-width: 2; stroke: #000000" x="520" y="120" width="40" height="40"/>
    <text font-size="12.7998" style="fill: #000000;text-anchor:middle;font-family:sans-serif;font-style:normal;font-weight:normal" x="540" y="143.9">
      <tspan x="540" y="143.9"></tspan>
    </text>
  </g>
  <g>
    <rect style="fill: #ffffff" x="560" y="120" width="40" height="40"/>
    <rect style="fill: none; fill-opacity:0; stroke-width: 2; stroke: #000000" x="560" y="120" width="40" height="40"/>
    <text font-size="12.7998" style="fill: #000000;text-anchor:middle;font-family:sans-serif;font-style:normal;font-weight:normal" x="580" y="143.9">
      <tspan x="580" y="143.9"></tspan>
    </text>
  </g>
  <g>
    <rect style="fill: #ffffff" x="320" y="160" width="40" height="40"/>
    <rect style="fill: none; fill-opacity:0; stroke-width: 2; stroke: #000000" x="320" y="160" width="40" height="40"/>
    <text font-size="12.7998" style="fill: #000000;text-anchor:middle;font-family:sans-serif;font-style:normal;font-weight:normal" x="340" y="183.9">
      <tspan x="340" y="183.9"></tspan>
    </text>
  </g>
  <g>
    <rect style="fill: #ffffff" x="360" y="160" width="40" height="40"/>
    <rect style="fill: none; fill-opacity:0; stroke-width: 2; stroke: #000000" x="360" y="160" width="40" height="40"/>
    <text font-size="12.7998" style="fill: #000000;text-anchor:middle;font-family:sans-serif;font-style:normal;font-weight:normal" x="380" y="183.9">
      <tspan x="380" y="183.9"></tspan>
    </text>
  </g>
  <g>
    <rect style="fill: #ffffff" x="400" y="160" width="40" height="40"/>
    <rect style="fill: none; fill-opacity:0; stroke-width: 2; stroke: #000000" x="400" y="160" width="40" height="40"/>
    <text font-size="12.7998" style="fill: #000000;text-anchor:middle;font-family:sans-serif;font-style:normal;font-weight:normal" x="420" y="183.9">
      <tspan x="420" y="183.9"></tspan>
    </text>
  </g>
  <g>
    <rect style="fill: #ffffff" x="440" y="160" width="40" height="40"/>
    <rect style="fill: none; fill-opacity:0; stroke-width: 2; stroke: #000000" x="440" y="160" width="40" height="40"/>
    <text font-size="12.7998" style="fill: #000000;text-anchor:middle;font-family:sans-serif;font-style:normal;font-weight:normal" x="460" y="183.9">
      <tspan x="460" y="183.9"></tspan>
    </text>
  </g>
  <g>
    <rect style="fill: #ffffff" x="480" y="160" width="40" height="40"/>
    <rect style="fill: none; fill-opacity:0; stroke-width: 2; stroke: #000000" x="480" y="160" width="40" height="40"/>
    <text font-size="12.7998" style="fill: #000000;text-anchor:middle;font-family:sans-serif;font-style:normal;font-weight:normal" x="500" y="183.9">
      <tspan x="500" y="183.9"></tspan>
    </text>
  </g>
  <g>
    <rect style="fill: #ffffff" x="520" y="160" width="40" height="40"/>
    <rect style="fill: none; fill-opacity:0; stroke-width: 2; stroke: #000000" x="520" y="160" width="40" height="40"/>
    <text font-size="12.7998" style="fill: #000000;text-anchor:middle;font-family:sans-serif;font-style:normal;font-weight:normal" x="540" y="183.9">
      <tspan x="540" y="183.9"></tspan>
    </text>
  </g>
  <g>
    <rect style="fill: #ffffff" x="560" y="160" width="40" height="40"/>
    <rect style="fill: none; fill-opacity:0; stroke-width: 2; stroke: #000000" x="560" y="160" width="40" height="40"/>
    <text font-size="12.7998" style="fill: #000000;text-anchor:middle;font-family:sans-serif;font-style:normal;font-weight:normal" x="580" y="183.9">
      <tspan x="580" y="183.9"></tspan>
    </text>
  </g>
  <g>
    <rect style="fill: #ffffff" x="320" y="200" width="40" height="40"/>
    <rect style="fill: none; fill-opacity:0; stroke-width: 2; stroke: #000000" x="320" y="200" width="40" height="40"/>
    <text font-size="12.7998" style="fill: #000000;text-anchor:middle;font-family:sans-serif;font-style:normal;font-weight:normal" x="340" y="223.9">
      <tspan x="340" y="223.9"></tspan>
    </text>
  </g>
  <g>
    <rect style="fill: #ffffff" x="360" y="200" width="40" height="40"/>
    <rect style="fill: none; fill-opacity:0; stroke-width: 2; stroke: #000000" x="360" y="200" width="40" height="40"/>
    <text font-size="12.7998" style="fill: #000000;text-anchor:middle;font-family:sans-serif;font-style:normal;font-weight:normal" x="380" y="223.9">
      <tspan x="380" y="223.9"></tspan>
    </text>
  </g>
  <g>
    <rect style="fill: #ffffff" x="400" y="200" width="40" height="40"/>
    <rect style="fill: none; fill-opacity:0; stroke-width: 2; stroke: #000000" x="400" y="200" width="40" height="40"/>
    <text font-size="12.7998" style="fill: #000000;text-anchor:middle;font-family:sans-serif;font-style:normal;font-weight:normal" x="420" y="223.9">
      <tspan x="420" y="223.9"></tspan>
    </text>
  </g>
  <g>
    <rect style="fill: #ffffff" x="440" y="200" width="40" height="40"/>
    <rect style="fill: none; fill-opacity:0; stroke-width: 2; stroke: #000000" x="440" y="200" width="40" height="40"/>
    <text font-size="12.7998" style="fill: #000000;text-anchor:middle;font-family:sans-serif;font-style:normal;font-weight:normal" x="460" y="223.9">
      <tspan x="460" y="223.9"></tspan>
    </text>
  </g>
  <g>
    <rect style="fill: #ffffff" x="480" y="200" width="40" height="40"/>
    <rect style="fill: none; fill-opacity:0; stroke-width: 2; stroke: #000000" x="480" y="200" width="40" height="40"/>
    <text font-size="12.7998" style="fill: #000000;text-anchor:middle;font-family:sans-serif;font-style:normal;font-weight:normal" x="500" y="223.9">
      <tspan x="500" y="223.9"></tspan>
    </text>
  </g>
  <g>
    <rect style="fill: #ffffff" x="520" y="200" width="40" height="40"/>
    <rect style="fill: none; fill-opacity:0; stroke-width: 2; stroke: #000000" x="520" y="200" width="40" height="40"/>
    <text font-size="12.7998" style="fill: #000000;text-anchor:middle;font-family:sans-serif;font-style:normal;font-weight:normal" x="540" y="223.9">
      <tspan x="540" y="223.9"></tspan>
    </text>
  </g>
  <g>
    <rect style="fill: #ffffff" x="560" y="200" width="40" height="40"/>
    <rect style="fill: none; fill-opacity:0; stroke-width: 2; stroke: #000000" x="560" y="200" width="40" height="40"/>
    <text font-size="12.7998" style="fill: #000000;text-anchor:middle;font-family:sans-serif;font-style:normal;font-weight:normal" x="580" y="223.9">
      <tspan x="580" y="223.9"></tspan>
    </text>
  </g>
  <g>
    <rect style="fill: #ffffff" x="320" y="240" width="40" height="40"/>
    <rect style="fill: none; fill-opacity:0; stroke-width: 2; stroke: #000000" x="320" y="240" width="40" height="40"/>
    <text font-size="12.7998" style="fill: #000000;text-anchor:middle;font-family:sans-serif;font-style:normal;font-weight:normal" x="340" y="263.9">
      <tspan x="340" y="263.9"></tspan>
    </text>
  </g>
  <g>
    <rect style="fill: #ffffff" x="360" y="240" width="40" height="40"/>
    <rect style="fill: none; fill-opacity:0; stroke-width: 2; stroke: #000000" x="360" y="240" width="40" height="40"/>
    <text font-size="12.7998" style="fill: #000000;text-anchor:middle;font-family:sans-serif;font-style:normal;font-weight:normal" x="380" y="263.9">
      <tspan x="380" y="263.9"></tspan>
    </text>
  </g>
  <g>
    <rect style="fill: #ffffff" x="400" y="240" width="40" height="40"/>
    <rect style="fill: none; fill-opacity:0; stroke-width: 2; stroke: #000000" x="400" y="240" width="40" height="40"/>
    <text font-size="12.7998" style="fill: #000000;text-anchor:middle;font-family:sans-serif;font-style:normal;font-weight:normal" x="420" y="263.9">
      <tspan x="420" y="263.9"></tspan>
    </text>
  </g>
  <g>
    <rect style="fill: #ffffff" x="440" y="240" width="40" height="40"/>
    <rect style="fill: none; fill-opacity:0; stroke-width: 2; stroke: #000000" x="440" y="240" width="40" height="40"/>
    <text font-size="12.7998" style="fill: #000000;text-anchor:middle;font-family:sans-serif;font-style:normal;font-weight:normal" x="460" y="263.9">
      <tspan x="460" y="263.9"></tspan>
    </text>
  </g>
  <g>
    <rect style="fill: #ffffff" x="480" y="240" width="40" height="40"/>
    <rect style="fill: none; fill-opacity:0; stroke-width: 2; stroke: #000000" x="480" y="240" width="40" height="40"/>
    <text font-size="12.7998" style="fill: #000000;text-anchor:middle;font-family:sans-serif;font-style:normal;font-weight:normal" x="500" y="263.9">
      <tspan x="500" y="263.9"></tspan>
    </text>
  </g>
  <g>
    <rect style="fill: #ffffff" x="520" y="240" width="40" height="40"/>
    <rect style="fill: none; fill-opacity:0; stroke-width: 2; stroke: #000000" x="520" y="240" width="40" height="40"/>
    <text font-size="12.7998" style="fill: #000000;text-anchor:middle;font-family:sans-serif;font-style:normal;font-weight:normal" x="540" y="263.9">
      <tspan x="540" y="263.9"></tspan>
    </text>
  </g>
  <g>
    <rect style="fill: #ffffff" x="560" y="240" width="40" height="40"/>
    <rect style="fill: none; fill-opacity:0; stroke-width: 2; stroke: #000000" x="560" y="240" width="40" height="40"/>
    <text font-size="12.7998" style="fill: #000000;text-anchor:middle;font-family:sans-serif;font-style:normal;font-weight:normal" x="580" y="263.9">
      <tspan x="580" y="263.9"></tspan>
    </text>
  </g>
  <g>
    <rect style="fill: #ffffff" x="320" y="280" width="40" height="40"/>
    <rect style="fill: none; fill-opacity:0; stroke-width: 2; stroke: #000000" x="320" y="280" width="40" height="40"/>
    <text font-size="12.7998" style="fill: #000000;text-anchor:middle;font-family:sans-serif;font-style:normal;font-weight:normal" x="340" y="303.9">
      <tspan x="340" y="303.9"></tspan>
    </text>
  </g>
  <g>
    <rect style="fill: #ffffff" x="360" y="280" width="40" height="40"/>
    <rect style="fill: none; fill-opacity:0; stroke-width: 2; stroke: #000000" x="360" y="280" width="40" height="40"/>
    <text font-size="12.7998" style="fill: #000000;text-anchor:middle;font-family:sans-serif;font-style:normal;font-weight:normal" x="380" y="303.9">
      <tspan x="380" y="303.9"></tspan>
    </text>
  </g>
  <g>
    <rect style="fill: #ffffff" x="400" y="280" width="40" height="40"/>
    <rect style="fill: none; fill-opacity:0; stroke-width: 2; stroke: #000000" x="400" y="280" width="40" height="40"/>
    <text font-size="12.7998" style="fill: #000000;text-anchor:middle;font-family:sans-serif;font-style:normal;font-weight:normal" x="420" y="303.9">
      <tspan x="420" y="303.9"></tspan>
    </text>
  </g>
  <g>
    <rect style="fill: #ffffff" x="440" y="280" width="40" height="40"/>
    <rect style="fill: none; fill-opacity:0; stroke-width: 2; stroke: #000000" x="440" y="280" width="40" height="40"/>
    <text font-size="12.7998" style="fill: #000000;text-anchor:middle;font-family:sans-serif;font-style:normal;font-weight:normal" x="460" y="303.9">
      <tspan x="460" y="303.9"></tspan>
    </text>
  </g>
  <g>
    <rect style="fill: #ffffff" x="480" y="280" width="40" height="40"/>
    <rect style="fill: none; fill-opacity:0; stroke-width: 2; stroke: #000000" x="480" y="280" width="40" height="40"/>
    <text font-size="12.7998" style="fill: #000000;text-anchor:middle;font-family:sans-serif;font-style:normal;font-weight:normal" x="500" y="303.9">
      <tspan x="500" y="303.9"></tspan>
    </text>
  </g>
  <g>
    <rect style="fill: #ffffff" x="520" y="280" width="40" height="40"/>
    <rect style="fill: none; fill-opacity:0; stroke-width: 2; stroke: #000000" x="520" y="280" width="40" height="40"/>
    <text font-size="12.7998" style="fill: #000000;text-anchor:middle;font-family:sans-serif;font-style:normal;font-weight:normal" x="540" y="303.9">
      <tspan x="540" y="303.9"></tspan>
    </text>
  </g>
  <g>
    <rect style="fill: #ffffff" x="560" y="280" width="40" height="40"/>
    <rect style="fill: none; fill-opacity:0; stroke-width: 2; stroke: #000000" x="560" y="280" width="40" height="40"/>
    <text font-size="12.7998" style="fill: #000000;text-anchor:middle;font-family:sans-serif;font-style:normal;font-weight:normal" x="580" y="303.9">
      <tspan x="580" y="303.9"></tspan>
    </text>
  </g>
  <g>
    <rect style="fill: #ffffff" x="320" y="320" width="40" height="40"/>
    <rect style="fill: none; fill-opacity:0; stroke-width: 2; stroke: #000000" x="320" y="320" width="40" height="40"/>
    <text font-size="12.7998" style="fill: #000000;text-anchor:middle;font-family:sans-serif;font-style:normal;font-weight:normal" x="340" y="343.9">
      <tspan x="340" y="343.9"></tspan>
    </text>
  </g>
  <g>
    <rect style="fill: #ffffff" x="360" y="320" width="40" height="40"/>
    <rect style="fill: none; fill-opacity:0; stroke-width: 2; stroke: #000000" x="360" y="320" width="40" height="40"/>
    <text font-size="12.7998" style="fill: #000000;text-anchor:middle;font-family:sans-serif;font-style:normal;font-weight:normal" x="380" y="343.9">
      <tspan x="380" y="343.9"></tspan>
    </text>
  </g>
  <g>
    <rect style="fill: #ffffff" x="400" y="320" width="40" height="40"/>
    <rect style="fill: none; fill-opacity:0; stroke-width: 2; stroke: #000000" x="400" y="320" width="40" height="40"/>
    <text font-size="12.7998" style="fill: #000000;text-anchor:middle;font-family:sans-serif;font-style:normal;font-weight:normal" x="420" y="343.9">
      <tspan x="420" y="343.9"></tspan>
    </text>
  </g>
  <g>
    <rect style="fill: #ffffff" x="440" y="320" width="40" height="40"/>
    <rect style="fill: none; fill-opacity:0; stroke-width: 2; stroke: #000000" x="440" y="320" width="40" height="40"/>
    <text font-size="12.7998" style="fill: #000000;text-anchor:middle;font-family:sans-serif;font-style:normal;font-weight:normal" x="460" y="343.9">
      <tspan x="460" y="343.9"></tspan>
    </text>
  </g>
  <g>
    <rect style="fill: #ffffff" x="480" y="320" width="40" height="40"/>
    <rect style="fill: none; fill-opacity:0; stroke-width: 2; stroke: #000000" x="480" y="320" width="40" height="40"/>
    <text font-size="12.7998" style="fill: #000000;text-anchor:middle;font-family:sans-serif;font-style:normal;font-weight:normal" x="500" y="343.9">
      <tspan x="500" y="343.9"></tspan>
    </text>
  </g>
  <g>
    <rect style="fill: #ffffff" x="520" y="320" width="40" height="40"/>
    <rect style="fill: none; fill-opacity:0; stroke-width: 2; stroke: #000000" x="520" y="320" width="40" height="40"/>
    <text font-size="12.7998" style="fill: #000000;text-anchor:middle;font-family:sans-serif;font-style:normal;font-weight:normal" x="540" y="343.9">
      <tspan x="540" y="343.9"></tspan>
    </text>
  </g>
  <g>
    <rect style="fill: #ffffff" x="560" y="320" width="40" height="40"/>
    <rect style="fill: none; fill-opacity:0; stroke-width: 2; stroke: #000000" x="560" y="320" width="40" height="40"/>
    <text font-size="12.7998" style="fill: #000000;text-anchor:middle;font-family:sans-serif;font-style:normal;font-weight:normal" x="580" y="343.9">
      <tspan x="580" y="343.9"></tspan>
    </text>
  </g>
  <g>
    <line style="fill: none; fill-opacity:0; stroke-width: 2; stroke: #000000" x1="560.991" y1="143.499" x2="770.396" y2="178.399"/>
    <polygon style="fill: #000000" points="777.794,179.632 767.108,182.92 770.396,178.399 768.752,173.056 "/>
    <polygon style="fill: none; fill-opacity:0; stroke-width: 2; stroke: #000000" points="777.794,179.632 767.108,182.92 770.396,178.399 768.752,173.056 "/>
  </g>
  <rect style="fill: none; fill-opacity:0; stroke-width: 2; stroke-dasharray: 20; stroke: #000000" x="780" y="120" width="160" height="160"/>
  <g>
    <rect style="fill: #ff0000" x="800" y="140" width="60" height="60"/>
    <rect style="fill: none; fill-opacity:0; stroke-width: 2; stroke: #000000" x="800" y="140" width="60" height="60"/>
    <text font-size="12.7998" style="fill: #000000;text-anchor:middle;font-family:sans-serif;font-style:normal;font-weight:normal" x="830" y="173.9">
      <tspan x="830" y="173.9"></tspan>
    </text>
  </g>
  <g>
    <ellipse style="fill: #0000ff" cx="870" cy="210" rx="30" ry="30"/>
    <ellipse style="fill: none; fill-opacity:0; stroke-width: 2; stroke: #000000" cx="870" cy="210" rx="30" ry="30"/>
    <text font-size="12.7998" style="fill: #000000;text-anchor:middle;font-family:sans-serif;font-style:normal;font-weight:normal" x="870" y="213.9">
      <tspan x="870" y="213.9"></tspan>
    </text>
  </g>
  <g>
    <rect style="fill: #ffffff" x="1060" y="140" width="100" height="60"/>
    <rect style="fill: none; fill-opacity:0; stroke-width: 2; stroke: #000000" x="1060" y="140" width="100" height="60"/>
    <text font-size="12.7998" style="fill: #000000;text-anchor:middle;font-family:sans-serif;font-style:normal;font-weight:normal" x="1110" y="173.9">
      <tspan x="1110" y="173.9">TILE</tspan>
    </text>
  </g>
  <g>
    <line style="fill: none; fill-opacity:0; stroke-width: 2; stroke: #000000" x1="861.003" y1="170" x2="1050.26" y2="170"/>
    <polygon style="fill: #000000" points="1057.76,170 1047.76,175 1050.26,170 1047.76,165 "/>
    <polygon style="fill: none; fill-opacity:0; stroke-width: 2; stroke: #000000" points="1057.76,170 1047.76,175 1050.26,170 1047.76,165 "/>
  </g>
  <g>
    <rect style="fill: #ffffff" x="1060" y="220" width="100" height="60"/>
    <rect style="fill: none; fill-opacity:0; stroke-width: 2; stroke: #000000" x="1060" y="220" width="100" height="60"/>
    <text font-size="12.7998" style="fill: #000000;text-anchor:middle;font-family:sans-serif;font-style:normal;font-weight:normal" x="1110" y="253.9">
      <tspan x="1110" y="253.9">ACTOR</tspan>
    </text>
  </g>
  <g>
    <polyline style="fill: none; fill-opacity:0; stroke-width: 2; stroke: #000000" points="900.996,210 957.527,210 957.527,250 1049.26,250 "/>
    <polygon style="fill: #000000" points="1056.76,250 1046.76,255 1049.26,250 1046.76,245 "/>
    <polygon style="fill: none; fill-opacity:0; stroke-width: 2; stroke: #000000" points="1056.76,250 1046.76,255 1049.26,250 1046.76,245 "/>
  </g>
  <g>
    <rect style="fill: #ffffff" x="280" y="-20" width="360" height="40"/>
    <rect style="fill: none; fill-opacity:0; stroke-width: 2; stroke: #000000" x="280" y="-20" width="360" height="40"/>
    <text font-size="12.7998" style="fill: #000000;text-anchor:middle;font-family:sans-serif;font-style:normal;font-weight:normal" x="460" y="3.9">
      <tspan x="460" y="3.9">MAP</tspan>
    </text>
  </g>
  <g>
    <rect style="fill: #ffffff" x="780" y="60" width="160" height="38"/>
    <rect style="fill: none; fill-opacity:0; stroke-width: 2; stroke: #000000" x="780" y="60" width="160" height="38"/>
    <text font-size="12.7998" style="fill: #000000;text-anchor:middle;font-family:sans-serif;font-style:normal;font-weight:normal" x="860" y="82.9">
      <tspan x="860" y="82.9">MAPTILE</tspan>
    </text>
  </g>
</svg>
